<mxfile host="Electron" modified="2023-05-09T00:49:11.143Z" agent="Mozilla/5.0 (Windows NT 10.0; Win64; x64) AppleWebKit/537.36 (KHTML, like Gecko) draw.io/21.1.2 Chrome/106.0.5249.199 Electron/21.4.3 Safari/537.36" etag="_MFwksXd7a3OrcWP7_rT" version="21.1.2" type="device">
  <diagram name="Page-1" id="Kczdc_h1UkbSY_qlYZhi">
    <mxGraphModel dx="792" dy="845" grid="1" gridSize="10" guides="1" tooltips="1" connect="1" arrows="1" fold="1" page="1" pageScale="1" pageWidth="850" pageHeight="1100" math="0" shadow="0">
      <root>
        <mxCell id="0" />
        <mxCell id="1" parent="0" />
        <mxCell id="LY3Q07KNFAMSp2cyhPik-13" value="" style="endArrow=classic;html=1;rounded=0;" edge="1" parent="1">
          <mxGeometry width="50" height="50" relative="1" as="geometry">
            <mxPoint x="178" y="280" as="sourcePoint" />
            <mxPoint x="178" y="400" as="targetPoint" />
          </mxGeometry>
        </mxCell>
        <mxCell id="LY3Q07KNFAMSp2cyhPik-1" value="Message returned" style="sketch=0;outlineConnect=0;fontColor=#232F3E;gradientColor=none;fillColor=#B0084D;strokeColor=none;dashed=0;verticalLabelPosition=bottom;verticalAlign=top;align=center;html=1;fontSize=12;fontStyle=0;aspect=fixed;pointerEvents=1;shape=mxgraph.aws4.message;" vertex="1" parent="1">
          <mxGeometry x="140" y="410" width="76" height="78" as="geometry" />
        </mxCell>
        <mxCell id="LY3Q07KNFAMSp2cyhPik-2" value="Message returned (again)" style="sketch=0;outlineConnect=0;fontColor=#232F3E;gradientColor=none;fillColor=#B0084D;strokeColor=none;dashed=0;verticalLabelPosition=bottom;verticalAlign=top;align=center;html=1;fontSize=12;fontStyle=0;aspect=fixed;pointerEvents=1;shape=mxgraph.aws4.message;" vertex="1" parent="1">
          <mxGeometry x="590" y="410" width="76" height="78" as="geometry" />
        </mxCell>
        <mxCell id="LY3Q07KNFAMSp2cyhPik-3" value="" style="edgeStyle=none;orthogonalLoop=1;jettySize=auto;html=1;rounded=0;" edge="1" parent="1">
          <mxGeometry width="100" relative="1" as="geometry">
            <mxPoint x="80" y="370" as="sourcePoint" />
            <mxPoint x="722" y="370" as="targetPoint" />
            <Array as="points" />
          </mxGeometry>
        </mxCell>
        <mxCell id="LY3Q07KNFAMSp2cyhPik-4" value="Time" style="text;html=1;align=center;verticalAlign=middle;resizable=0;points=[];autosize=1;strokeColor=none;fillColor=none;" vertex="1" parent="1">
          <mxGeometry x="666" y="370" width="50" height="30" as="geometry" />
        </mxCell>
        <mxCell id="LY3Q07KNFAMSp2cyhPik-10" value="" style="rounded=0;whiteSpace=wrap;html=1;fillColor=none;strokeColor=#b0084d;" vertex="1" parent="1">
          <mxGeometry x="178" y="310" width="412" height="60" as="geometry" />
        </mxCell>
        <mxCell id="LY3Q07KNFAMSp2cyhPik-9" value="&lt;b&gt;&lt;font style=&quot;font-size: 25px;&quot;&gt;Visibility timeout&lt;/font&gt;&lt;/b&gt;" style="text;html=1;align=center;verticalAlign=middle;resizable=0;points=[];autosize=1;strokeColor=none;fillColor=none;" vertex="1" parent="1">
          <mxGeometry x="290" y="320" width="220" height="40" as="geometry" />
        </mxCell>
        <mxCell id="LY3Q07KNFAMSp2cyhPik-14" value="ReceiveMessage&lt;br&gt;&lt;b&gt;request&lt;/b&gt;" style="text;html=1;align=center;verticalAlign=middle;resizable=0;points=[];autosize=1;strokeColor=none;fillColor=none;" vertex="1" parent="1">
          <mxGeometry x="119" y="240" width="120" height="40" as="geometry" />
        </mxCell>
        <mxCell id="LY3Q07KNFAMSp2cyhPik-15" value="ReceiveMessage&lt;br&gt;&lt;b&gt;request&lt;/b&gt;" style="text;html=1;align=center;verticalAlign=middle;resizable=0;points=[];autosize=1;strokeColor=none;fillColor=none;" vertex="1" parent="1">
          <mxGeometry x="260" y="240" width="120" height="40" as="geometry" />
        </mxCell>
        <mxCell id="LY3Q07KNFAMSp2cyhPik-16" value="ReceiveMessage&lt;br&gt;&lt;b&gt;request&lt;/b&gt;" style="text;html=1;align=center;verticalAlign=middle;resizable=0;points=[];autosize=1;strokeColor=none;fillColor=none;" vertex="1" parent="1">
          <mxGeometry x="400" y="240" width="120" height="40" as="geometry" />
        </mxCell>
        <mxCell id="LY3Q07KNFAMSp2cyhPik-17" value="ReceiveMessage&lt;br&gt;&lt;b&gt;request&lt;/b&gt;" style="text;html=1;align=center;verticalAlign=middle;resizable=0;points=[];autosize=1;strokeColor=none;fillColor=none;" vertex="1" parent="1">
          <mxGeometry x="568" y="240" width="120" height="40" as="geometry" />
        </mxCell>
        <mxCell id="LY3Q07KNFAMSp2cyhPik-18" value="" style="endArrow=classic;html=1;rounded=0;" edge="1" parent="1">
          <mxGeometry width="50" height="50" relative="1" as="geometry">
            <mxPoint x="627.66" y="280" as="sourcePoint" />
            <mxPoint x="627.66" y="400" as="targetPoint" />
          </mxGeometry>
        </mxCell>
        <mxCell id="LY3Q07KNFAMSp2cyhPik-19" value="Not returned" style="text;html=1;align=center;verticalAlign=middle;resizable=0;points=[];autosize=1;strokeColor=none;fillColor=none;" vertex="1" parent="1">
          <mxGeometry x="250" y="370" width="90" height="30" as="geometry" />
        </mxCell>
        <mxCell id="LY3Q07KNFAMSp2cyhPik-20" value="Not returned" style="text;html=1;align=center;verticalAlign=middle;resizable=0;points=[];autosize=1;strokeColor=none;fillColor=none;" vertex="1" parent="1">
          <mxGeometry x="415" y="370" width="90" height="30" as="geometry" />
        </mxCell>
      </root>
    </mxGraphModel>
  </diagram>
</mxfile>
